<?xml version="1.0" encoding="UTF-8"?>
<svg id="Outline" xmlns="http://www.w3.org/2000/svg" viewBox="0 0 512.09 438.91">
  <defs>
    <style>
      .cls-1 {
        fill: #999;
        stroke-width: 0px;
      }
    </style>
  </defs>
  <path class="cls-1" d="M485.82,155.62c-20.24-23.33-49.61-36.72-80.49-36.71h-85.1l7.17-43.54c5.84-35.3-18.05-68.65-53.35-74.49-28.18-4.66-56.09,9.68-68.7,35.3l-40.83,82.73h-57.86C47.79,118.98.07,166.69,0,225.57v106.67c.07,58.88,47.79,106.6,106.67,106.67h283.73c53.06-.22,97.98-39.23,105.62-91.73l15.04-106.67c4.29-30.62-4.92-61.58-25.24-84.89ZM42.67,332.24v-106.67c0-35.35,28.65-64,64-64h42.67v234.67h-42.67c-35.35,0-64-28.65-64-64ZM468.71,234.51l-15.06,106.67c-4.55,31.48-31.45,54.89-63.25,55.06h-198.4v-240.34c2.01-1.75,3.67-3.86,4.91-6.23l46.7-94.61c6.11-11.03,20.01-15.01,31.03-8.9,2.13,1.18,4.05,2.69,5.7,4.48,4.24,4.93,6.07,11.5,4.97,17.92l-11.26,68.27c-1.89,11.63,6.01,22.59,17.65,24.47,1.13.18,2.27.27,3.41.27h110.23c35.35,0,64,28.65,64.01,63.99,0,2.99-.21,5.98-.63,8.95h0Z"/>
</svg>