<?xml version="1.0" encoding="UTF-8"?>
<svg id="Layer_1" data-name="Layer 1" xmlns="http://www.w3.org/2000/svg" viewBox="0 0 512 512">
  <defs>
    <style>
      .cls-1 {
        fill: #999;
        stroke-width: 0px;
      }
    </style>
  </defs>
  <path class="cls-1" d="M401.34,213.33c6.59,0,12.82-3.05,16.85-8.26s5.44-11.99,3.82-18.37c-6.63-25.96-20.16-49.69-39.1-68.63l-74.35-74.35C280.36,15.53,242.86,0,202.97,0h-96.32C47.85,0,0,47.85,0,106.67v298.67c0,58.82,47.85,106.67,106.67,106.67h64c11.78,0,21.33-9.56,21.33-21.33s-9.56-21.33-21.33-21.33h-64c-35.29,0-64-28.71-64-64V106.67c0-35.29,28.71-64,64-64h96.32c3.48,0,6.93.17,10.35.49v106.18c0,35.29,28.71,64,64,64h124.01ZM256,149.33V56.73c8.09,4.65,15.62,10.41,22.4,17.19l74.35,74.35c6.7,6.7,12.44,14.25,17.13,22.4h-92.54c-11.75,0-21.33-9.58-21.33-21.33ZM493.27,253.42c-24.19-24.19-66.35-24.19-90.52,0l-143.08,143.08c-16.11,16.11-25,37.55-25,60.35v33.83c0,11.78,9.56,21.33,21.33,21.33h33.83c22.81,0,44.22-8.9,60.33-25l143.08-143.08c12.1-12.1,18.75-28.16,18.75-45.27s-6.66-33.17-18.73-45.25h0ZM463.08,313.75l-143.1,143.08c-8.04,8.06-18.75,12.5-30.17,12.5h-12.5v-12.5c0-11.39,4.44-22.1,12.5-30.17l143.1-143.08c8.04-8.06,22.1-8.06,30.17,0,4.03,4.01,6.25,9.37,6.25,15.08s-2.22,11.05-6.25,15.08Z"/>
</svg>