<?xml version="1.0" encoding="UTF-8"?>
<svg id="Capa_1" data-name="Capa 1" xmlns="http://www.w3.org/2000/svg" viewBox="0 0 14.325 16">
  <defs>
    <style>
      .cls-1 {
        fill: #fff;
        fill-rule: evenodd;
        stroke-width: 0px;
      }
    </style>
  </defs>
  <path class="cls-1" d="M4.782,16h5.776c-.215-.086-.299-.293-.299-.479,0-.343.012-1.466.012-2.862,0-.972-.334-1.608-.707-1.931,2.322-.258,4.761-1.14,4.761-5.145,0-1.138-.405-2.069-1.073-2.799.108-.263.465-1.323-.103-2.76,0,0-.875-.281-2.865,1.069-.833-.231-1.726-.347-2.612-.351-.886.004-1.778.12-2.61.351C3.07-.256,2.194.024,2.194.024c-.567,1.436-.209,2.497-.101,2.76-.667.73-1.075,1.661-1.075,2.799,0,3.996,2.435,4.89,4.751,5.153-.298.261-.568.72-.662,1.395-.595.267-2.105.727-3.035-.866,0,0-.551-1.001-1.598-1.075,0,0-1.018-.014-.071.633,0,0,.683.321,1.157,1.526,0,0,.613,1.861,3.513,1.23.004.872.014,1.693.014,1.941,0,.186-.088.394-.306.479Z"/>
</svg>