<?xml version="1.0" encoding="UTF-8"?>
<svg id="Layer_1" data-name="Layer 1" xmlns="http://www.w3.org/2000/svg" viewBox="0 0 102 27">
  <path d="M.713,8.476C.211,7.982-.039,7.363-.039,6.621c0-.779.244-1.413.732-1.901s1.123-.745,1.902-.771c.767.013,1.4.267,1.902.761.5.495.757,1.12.77,1.874-.013.768-.27,1.398-.77,1.893-.502.495-1.136.742-1.902.742-.755,0-1.383-.247-1.883-.742ZM.713,22.373c-.502-.494-.752-1.113-.752-1.855,0-.779.244-1.413.732-1.902.489-.488,1.123-.744,1.902-.77.767.013,1.4.267,1.902.761.5.495.757,1.12.77,1.874-.013.768-.27,1.398-.77,1.892-.502.494-1.136.742-1.902.742-.755,0-1.383-.248-1.883-.742Z" style="fill: #1e88e5; stroke-width: 0px;"/>
  <path d="M11.565,26.862c-1.292,0-1.938-.658-1.938-1.972V2.11c0-1.314.646-1.972,1.938-1.972h7.379c3.876,0,6.851,1.076,8.925,3.229s3.11,5.531,3.11,10.132-1.036,7.979-3.11,10.131c-2.074,2.153-5.049,3.23-8.925,3.23h-7.379ZM18.875,22.102c1.133,0,2.142-.158,3.026-.477.884-.317,1.632-.821,2.243-1.512.612-.691,1.083-1.581,1.411-2.669s.493-2.402.493-3.944-.165-2.855-.493-3.943c-.328-1.089-.799-1.978-1.411-2.669-.611-.691-1.359-1.195-2.243-1.514-.885-.317-1.894-.476-3.026-.476h-4.318v17.204h4.318Z" style="fill: #1e88e5; stroke-width: 0px;"/>
  <path d="M53.385,22.102c.702,0,1.054.352,1.054,1.054v2.652c0,.702-.352,1.054-1.054,1.054h-16.729c-1.292,0-1.938-.658-1.938-1.972V2.11c0-1.314.646-1.972,1.938-1.972h15.98c.748,0,1.122.374,1.122,1.121v2.517c0,.748-.374,1.122-1.122,1.122h-12.988v5.813h12.309c.748,0,1.122.374,1.122,1.122v2.517c0,.748-.374,1.122-1.122,1.122h-12.309v6.629h13.736Z" style="fill: #282828; stroke-width: 0px;"/>
  <path d="M76.505,22.102c.702,0,1.054.352,1.054,1.054v2.652c0,.702-.352,1.054-1.054,1.054h-16.729c-1.292,0-1.938-.658-1.938-1.972V2.11c0-1.314.646-1.972,1.938-1.972h15.98c.748,0,1.122.374,1.122,1.121v2.517c0,.748-.374,1.122-1.122,1.122h-12.988v5.813h12.309c.748,0,1.122.374,1.122,1.122v2.517c0,.748-.374,1.122-1.122,1.122h-12.309v6.629h13.736Z" style="fill: #282828; stroke-width: 0px;"/>
  <path d="M93.334.138c2.856,0,5.021.771,6.494,2.312,1.473,1.542,2.21,3.797,2.21,6.766s-.737,5.226-2.21,6.767c-1.474,1.541-3.638,2.312-6.494,2.312h-7.446v7.446c0,.748-.374,1.122-1.122,1.122h-2.686c-.748,0-1.122-.374-1.122-1.122V2.11c0-1.314.646-1.972,1.938-1.972h10.438ZM93.13,13.534c2.652,0,3.979-1.439,3.979-4.318s-1.326-4.317-3.979-4.317h-7.242v8.636h7.242Z" style="fill: #282828; stroke-width: 0px;"/>
</svg>